<?xml version="1.0" encoding="UTF-8" standalone="no"?>
<!DOCTYPE svg PUBLIC "-//W3C//DTD SVG 1.1//EN"
 "http://www.w3.org/Graphics/SVG/1.1/DTD/svg11.dtd">
<!-- Generated by graphviz version 2.26.3 (20100126.1600)
 -->
<!-- Title: G Pages: 1 -->
<svg width="651pt" height="420pt"
 viewBox="0.00 0.00 651.00 420.00" xmlns="http://www.w3.org/2000/svg" xmlns:xlink="http://www.w3.org/1999/xlink">
<g id="graph1" class="graph" transform="scale(1 1) rotate(0) translate(4 416)">
<title>G</title>
<polygon fill="white" stroke="white" points="-4,5 -4,-416 648,-416 648,5 -4,5"/>
<g id="graph2" class="cluster"><title>cluster0</title>
<polygon fill="none" stroke="black" points="315,-136 315,-404 515,-404 515,-136 315,-136"/>
</g>
<!-- binary -->
<g id="node1" class="node"><title>binary</title>
<ellipse fill="none" stroke="black" cx="152" cy="-234" rx="59.7599" ry="18"/>
<text text-anchor="middle" x="152" y="-229.9" font-family="Times Roman,serif" font-size="14.00">_binary.py</text>
</g>
<!-- constants -->
<g id="node4" class="node"><title>constants</title>
<ellipse fill="none" stroke="black" cx="152" cy="-90" rx="77.8268" ry="18"/>
<text text-anchor="middle" x="152" y="-85.9" font-family="Times Roman,serif" font-size="14.00">_constants.py</text>
</g>
<!-- binary&#45;&gt;constants -->
<g id="edge11" class="edge"><title>binary&#45;&gt;constants</title>
<path fill="none" stroke="black" stroke-dasharray="1,5" d="M152,-215.762C152,-191.201 152,-147.247 152,-118.354"/>
<polygon fill="black" stroke="black" points="155.5,-118.09 152,-108.09 148.5,-118.09 155.5,-118.09"/>
</g>
<!-- values -->
<g id="node5" class="node"><title>values</title>
<ellipse fill="none" stroke="black" cx="62" cy="-162" rx="61.8445" ry="18"/>
<text text-anchor="middle" x="62" y="-157.9" font-family="Times Roman,serif" font-size="14.00">_values.py</text>
</g>
<!-- binary&#45;&gt;values -->
<g id="edge27" class="edge"><title>binary&#45;&gt;values</title>
<path fill="none" stroke="black" stroke-dasharray="1,5" d="M130.671,-216.937C118.902,-207.522 104.114,-195.691 91.2777,-185.422"/>
<polygon fill="black" stroke="black" points="93.1708,-182.454 83.1756,-178.941 88.7979,-187.921 93.1708,-182.454"/>
</g>
<!-- rating -->
<g id="node2" class="node"><title>rating</title>
<ellipse fill="none" stroke="black" cx="583" cy="-162" rx="59.7599" ry="18"/>
<text text-anchor="middle" x="583" y="-157.9" font-family="Times Roman,serif" font-size="14.00">_rating.py</text>
</g>
<!-- fow -->
<g id="node3" class="node"><title>fow</title>
<ellipse fill="none" stroke="black" cx="583" cy="-90" rx="47.9469" ry="18"/>
<text text-anchor="middle" x="583" y="-85.9" font-family="Times Roman,serif" font-size="14.00">_fow.py</text>
</g>
<!-- rating&#45;&gt;fow -->
<g id="edge9" class="edge"><title>rating&#45;&gt;fow</title>
<path fill="none" stroke="black" stroke-dasharray="1,5" d="M583,-143.831C583,-136.131 583,-126.974 583,-118.417"/>
<polygon fill="black" stroke="black" points="586.5,-118.413 583,-108.413 579.5,-118.413 586.5,-118.413"/>
</g>
<!-- utils -->
<g id="node6" class="node"><title>utils</title>
<ellipse fill="none" stroke="black" cx="152" cy="-18" rx="50.9221" ry="18"/>
<text text-anchor="middle" x="152" y="-13.9" font-family="Times Roman,serif" font-size="14.00">_utils.py</text>
</g>
<!-- constants&#45;&gt;utils -->
<g id="edge21" class="edge"><title>constants&#45;&gt;utils</title>
<path fill="none" stroke="black" stroke-dasharray="1,5" d="M152,-71.8314C152,-64.131 152,-54.9743 152,-46.4166"/>
<polygon fill="black" stroke="black" points="155.5,-46.4132 152,-36.4133 148.5,-46.4133 155.5,-46.4132"/>
</g>
<!-- values&#45;&gt;constants -->
<g id="edge17" class="edge"><title>values&#45;&gt;constants</title>
<path fill="none" stroke="black" stroke-dasharray="1,5" d="M83.3287,-144.937C94.927,-135.658 109.458,-124.034 122.163,-113.87"/>
<polygon fill="black" stroke="black" points="124.577,-116.421 130.199,-107.441 120.204,-110.955 124.577,-116.421"/>
</g>
<!-- values&#45;&gt;utils -->
<g id="edge25" class="edge"><title>values&#45;&gt;utils</title>
<path fill="none" stroke="black" stroke-dasharray="1,5" d="M57.8493,-143.731C54.5149,-124.515 52.2428,-94.0597 65,-72 74.2993,-55.9196 90.5018,-43.9697 106.423,-35.4574"/>
<polygon fill="black" stroke="black" points="108.315,-38.4251 115.71,-30.8376 105.198,-32.1577 108.315,-38.4251"/>
</g>
<!-- data -->
<g id="node8" class="node"><title>data</title>
<polygon fill="none" stroke="black" points="323.095,-372.438 415,-360 506.905,-372.438 506.819,-392.562 323.181,-392.562 323.095,-372.438"/>
<text text-anchor="middle" x="415" y="-373.9" font-family="Times Roman,serif" font-size="14.00">Physical data</text>
</g>
<!-- parser -->
<g id="node9" class="node"><title>parser</title>
<polygon fill="none" stroke="black" points="458,-324 372,-324 372,-288 458,-288 458,-324"/>
<text text-anchor="middle" x="415" y="-301.9" font-family="Times Roman,serif" font-size="14.00">_parser.py</text>
</g>
<!-- data&#45;&gt;parser -->
<g id="edge3" class="edge"><title>data&#45;&gt;parser</title>
<path fill="none" stroke="black" d="M415,-359.831C415,-352.131 415,-342.974 415,-334.417"/>
<polygon fill="black" stroke="black" points="418.5,-334.413 415,-324.413 411.5,-334.413 418.5,-334.413"/>
</g>
<!-- parser&#45;&gt;binary -->
<g id="edge7" class="edge"><title>parser&#45;&gt;binary</title>
<path fill="none" stroke="black" stroke-dasharray="1,5" d="M371.865,-294.191C326.602,-281.8 255.342,-262.291 206.285,-248.861"/>
<polygon fill="black" stroke="black" points="207.046,-245.441 196.477,-246.176 205.198,-252.193 207.046,-245.441"/>
</g>
<!-- parser&#45;&gt;constants -->
<g id="edge15" class="edge"><title>parser&#45;&gt;constants</title>
<path fill="none" stroke="black" stroke-dasharray="1,5" d="M371.844,-298.054C339.604,-290.446 295.802,-276.411 264,-252 216.523,-215.557 181.609,-153.211 164.274,-117.423"/>
<polygon fill="black" stroke="black" points="167.294,-115.621 159.855,-108.077 160.965,-118.613 167.294,-115.621"/>
</g>
<!-- parser&#45;&gt;utils -->
<g id="edge23" class="edge"><title>parser&#45;&gt;utils</title>
<path fill="none" stroke="black" stroke-dasharray="1,5" d="M393.136,-287.893C381.726,-277.907 367.911,-264.936 357,-252 295.326,-178.879 307.473,-138.797 239,-72 225.171,-58.5099 207.406,-46.742 191.538,-37.6652"/>
<polygon fill="black" stroke="black" points="192.902,-34.4202 182.458,-32.6392 189.512,-40.5445 192.902,-34.4202"/>
</g>
<!-- decoder -->
<g id="node10" class="node"><title>decoder</title>
<polygon fill="none" stroke="black" points="464,-252 366,-252 366,-216 464,-216 464,-252"/>
<text text-anchor="middle" x="415" y="-229.9" font-family="Times Roman,serif" font-size="14.00">_decoder.py</text>
</g>
<!-- parser&#45;&gt;decoder -->
<g id="edge4" class="edge"><title>parser&#45;&gt;decoder</title>
<path fill="none" stroke="black" d="M415,-287.831C415,-280.131 415,-270.974 415,-262.417"/>
<polygon fill="black" stroke="black" points="418.5,-262.413 415,-252.413 411.5,-262.413 418.5,-262.413"/>
</g>
<!-- decoder&#45;&gt;rating -->
<g id="edge19" class="edge"><title>decoder&#45;&gt;rating</title>
<path fill="none" stroke="black" stroke-dasharray="1,5" d="M457.393,-215.831C482.389,-205.119 513.961,-191.588 539.198,-180.772"/>
<polygon fill="black" stroke="black" points="540.721,-183.927 548.534,-176.771 537.964,-177.493 540.721,-183.927"/>
</g>
<!-- decoder&#45;&gt;constants -->
<g id="edge13" class="edge"><title>decoder&#45;&gt;constants</title>
<path fill="none" stroke="black" stroke-dasharray="1,5" d="M387.68,-215.943C356.124,-195.426 302.338,-161.488 254,-136 236.602,-126.826 217.01,-117.714 199.682,-110.049"/>
<polygon fill="black" stroke="black" points="200.881,-106.753 190.316,-105.948 198.073,-113.165 200.881,-106.753"/>
</g>
<!-- consumer -->
<g id="node11" class="node"><title>consumer</title>
<polygon fill="none" stroke="black" points="344.208,-156.438 415,-144 485.792,-156.438 485.726,-176.562 344.274,-176.562 344.208,-156.438"/>
<text text-anchor="middle" x="415" y="-157.9" font-family="Times Roman,serif" font-size="14.00">consumer</text>
</g>
<!-- decoder&#45;&gt;consumer -->
<g id="edge5" class="edge"><title>decoder&#45;&gt;consumer</title>
<path fill="none" stroke="black" d="M415,-215.831C415,-207.114 415,-196.531 415,-187.063"/>
<polygon fill="black" stroke="black" points="418.5,-187.006 415,-177.006 411.5,-187.006 418.5,-187.006"/>
</g>
</g>
</svg>
